<svg id="Glyph" enable-background="new 0 0 64 64" height="512" viewBox="0 0 64 64" width="512" xmlns="http://www.w3.org/2000/svg"><path d="m51.961 18.275-1.923-.55-3.038 10.635-3.039-10.635-1.923.55.208.729-2.246 2.996 2 6 2.04-2.72 1.634 5.72h-9.674v-11c0-3.314-2.686-6-6-6h-5-13l-6-6-3 3 7 8h9v12h-5v16h36v-16h-1.674l1.634-5.72 2.04 2.72 2-6-2.247-2.996zm-21.961.725h2v12h-2zm-8 12v-9.236l2.105-4.211 1.789.895-1.894 3.788v8.764zm10 12c-2.209 0-4-1.791-4-4s1.791-4 4-4 4 1.791 4 4-1.791 4-4 4z"/><circle cx="25" cy="8" r="6"/><path d="m39 58-7-3-7 3v-9h-8v13h30v-13h-8z"/><path d="m59 2h-16c-1.105 0-2 .895-2 2v6l-4 4h22c1.105 0 2-.895 2-2v-8c0-1.105-.895-2-2-2zm-1 9h-14v-2h14zm0-4h-14v-2h14z"/></svg>