<svg id="Layer_3" enable-background="new 0 0 64 64" height="512" viewBox="0 0 64 64" width="512" xmlns="http://www.w3.org/2000/svg"><path d="m10 21h8v10h-4c-.552 0-1 .448-1 1v16c0 .552.448 1 1 1h2v12c0 .552.448 1 1 1h30c.552 0 1-.448 1-1v-12h2c.552 0 1-.448 1-1v-16c0-.552-.448-1-1-1h-1.646l1.134-3.684 1.712 2.284c.223.297.593.445.96.387.367-.06.671-.318.789-.671l2-6c.104-.312.048-.654-.149-.917l-3-4c-.225-.301-.597-.45-.972-.385-.37.065-.673.332-.784.691l-3.044 9.895-3.044-9.894c-.11-.36-.414-.626-.784-.691-.376-.063-.747.084-.972.385l-3 4c-.197.263-.252.605-.149.917l2 6c.118.353.421.611.789.671.371.059.737-.089.96-.387l1.713-2.284 1.133 3.683h-8.646v-10c0-3.86-3.14-7-7-7h-.11c1.3-1.272 2.11-3.042 2.11-5 0-3.86-3.14-7-7-7s-7 3.14-7 7c0 1.958.81 3.728 2.11 5h-7.696l-5.707-5.707c-.391-.391-1.023-.391-1.414 0l-3 3c-.373.372-.392.969-.045 1.366l7 8c.19.216.463.341.752.341zm41.378.171 1.507 2.01-1.231 3.692-1.44-1.92zm-9.033 5.702-1.231-3.692 1.507-2.01 1.164 3.782zm3.655 33.127h-28v-11h6v8c0 .336.169.65.45.835.28.185.635.217.944.084l6.606-2.831 6.606 2.831c.126.054.26.081.394.081.193 0 .385-.056.55-.165.281-.185.45-.499.45-.835v-8h6zm-20-11h12v6.483l-5.606-2.402c-.252-.108-.536-.108-.788 0l-5.606 2.402zm23-2h-2-30-2v-14h34zm-29-38c0-2.757 2.243-5 5-5s5 2.243 5 5-2.243 5-5 5-5-2.243-5-5zm-14 1.414 5.293 5.293c.187.188.442.293.707.293h18c2.757 0 5 2.243 5 5v10h-3v-11h-2v11h-6v-7.764l1.895-3.789-1.789-.895-2 4c-.07.139-.106.293-.106.448v8h-2v-11c0-.552-.448-1-1-1h-8.546l-6.085-6.955z"/><path d="m32 35c-2.757 0-5 2.243-5 5s2.243 5 5 5 5-2.243 5-5-2.243-5-5-5zm0 8c-1.654 0-3-1.346-3-3s1.346-3 3-3 3 1.346 3 3-1.346 3-3 3z"/><path d="m59 2h-16c-1.654 0-3 1.346-3 3v5.586l-3.707 3.707c-.286.286-.372.716-.217 1.09.155.373.52.617.924.617h22c1.654 0 3-1.346 3-3v-8c0-1.654-1.346-3-3-3zm1 11c0 .551-.449 1-1 1h-19.586l2.293-2.293c.188-.187.293-.442.293-.707v-6c0-.551.449-1 1-1h16c.551 0 1 .449 1 1z"/><path d="m44 6h14v2h-14z"/><path d="m44 10h14v2h-14z"/></svg>